<svg xmlns="http://www.w3.org/2000/svg" viewBox="0 0 640 800"><defs><radialGradient id="g"><stop stop-color="#e7af8c" stop-opacity=".15"/><stop offset="1" stop-color="#382822" stop-opacity="0"/></radialGradient></defs><path fill="#382822" d="M0 0h640v800H0z"/><circle cx="290" cy="325" r="335" fill="url(#g)"/><g fill="none" stroke="#e7af8c" stroke-width="2" opacity=".64" transform="translate(15 25) scale(.95)"><path d="M320 485V332m0 70q-111 0-123-110 100-6 123 110m0-45q105-9 116-107-91 4-116 107"/><ellipse cx="320" cy="237" rx="52" ry="90"/><ellipse cx="320" cy="237" rx="52" ry="90" transform="rotate(60 320 237)"/><ellipse cx="320" cy="237" rx="52" ry="90" transform="rotate(-60 320 237)"/></g><g stroke="#e7af8c" opacity=".12"><path d="M70 90v510M570 90v510M70 110h500M70 590h500"/></g><g fill="#e7af8c" opacity=".32"><circle cx="95" cy="142" r="2"/><circle cx="542" cy="432" r="2"/><circle cx="487" cy="118" r="2"/></g></svg>